<mxfile host="app.diagrams.net" agent="Mozilla/5.0 (Windows NT 10.0; Win64; x64) AppleWebKit/537.36 (KHTML, like Gecko) Chrome/130.0.0.0 Safari/537.36 Edg/130.0.0.0" version="24.8.0">
  <diagram id="Ht1M8jgEwFfnCIfOTk4-" name="Page-1">
    <mxGraphModel dx="2753" dy="1801" grid="1" gridSize="10" guides="1" tooltips="1" connect="1" arrows="1" fold="1" page="1" pageScale="1" pageWidth="1169" pageHeight="827" math="0" shadow="0">
      <root>
        <mxCell id="0" />
        <mxCell id="1" parent="0" />
        <mxCell id="UEzPUAAOIrF-is8g5C7q-164" style="edgeStyle=orthogonalEdgeStyle;rounded=0;orthogonalLoop=1;jettySize=auto;html=1;startArrow=none;startFill=0;endArrow=open;endFill=0;strokeColor=#808080;strokeWidth=2;" parent="1" source="UEzPUAAOIrF-is8g5C7q-146" target="UEzPUAAOIrF-is8g5C7q-148" edge="1">
          <mxGeometry relative="1" as="geometry">
            <Array as="points">
              <mxPoint x="237" y="-616" />
              <mxPoint x="237" y="-525" />
            </Array>
          </mxGeometry>
        </mxCell>
        <mxCell id="UEzPUAAOIrF-is8g5C7q-165" style="edgeStyle=orthogonalEdgeStyle;rounded=0;orthogonalLoop=1;jettySize=auto;html=1;startArrow=none;startFill=0;endArrow=open;endFill=0;strokeColor=#808080;strokeWidth=2;" parent="1" source="UEzPUAAOIrF-is8g5C7q-147" target="UEzPUAAOIrF-is8g5C7q-148" edge="1">
          <mxGeometry relative="1" as="geometry">
            <Array as="points">
              <mxPoint x="237" y="-456" />
              <mxPoint x="237" y="-525" />
            </Array>
          </mxGeometry>
        </mxCell>
        <mxCell id="UEzPUAAOIrF-is8g5C7q-162" style="edgeStyle=orthogonalEdgeStyle;rounded=0;orthogonalLoop=1;jettySize=auto;html=1;startArrow=none;startFill=0;endArrow=open;endFill=0;strokeColor=#808080;strokeWidth=2;" parent="1" source="UEzPUAAOIrF-is8g5C7q-148" target="UEzPUAAOIrF-is8g5C7q-144" edge="1">
          <mxGeometry relative="1" as="geometry">
            <Array as="points">
              <mxPoint x="325" y="-674" />
              <mxPoint x="295" y="-674" />
            </Array>
          </mxGeometry>
        </mxCell>
        <mxCell id="UEzPUAAOIrF-is8g5C7q-163" style="edgeStyle=orthogonalEdgeStyle;rounded=0;orthogonalLoop=1;jettySize=auto;html=1;startArrow=none;startFill=0;endArrow=open;endFill=0;strokeColor=#808080;strokeWidth=2;" parent="1" source="UEzPUAAOIrF-is8g5C7q-148" target="UEzPUAAOIrF-is8g5C7q-145" edge="1">
          <mxGeometry relative="1" as="geometry">
            <Array as="points">
              <mxPoint x="325" y="-674" />
              <mxPoint x="455" y="-674" />
            </Array>
          </mxGeometry>
        </mxCell>
        <mxCell id="UEzPUAAOIrF-is8g5C7q-166" style="edgeStyle=orthogonalEdgeStyle;rounded=0;orthogonalLoop=1;jettySize=auto;html=1;startArrow=none;startFill=0;endArrow=open;endFill=0;strokeColor=#808080;strokeWidth=2;" parent="1" source="UEzPUAAOIrF-is8g5C7q-148" target="UEzPUAAOIrF-is8g5C7q-150" edge="1">
          <mxGeometry relative="1" as="geometry" />
        </mxCell>
        <mxCell id="UEzPUAAOIrF-is8g5C7q-167" style="edgeStyle=orthogonalEdgeStyle;rounded=0;orthogonalLoop=1;jettySize=auto;html=1;startArrow=none;startFill=0;endArrow=open;endFill=0;strokeColor=#808080;strokeWidth=2;" parent="1" source="UEzPUAAOIrF-is8g5C7q-148" target="UEzPUAAOIrF-is8g5C7q-154" edge="1">
          <mxGeometry relative="1" as="geometry">
            <mxPoint x="786" y="-525" as="targetPoint" />
            <Array as="points">
              <mxPoint x="686" y="-525" />
              <mxPoint x="686" y="-525" />
            </Array>
          </mxGeometry>
        </mxCell>
        <mxCell id="UEzPUAAOIrF-is8g5C7q-168" style="edgeStyle=orthogonalEdgeStyle;rounded=0;orthogonalLoop=1;jettySize=auto;html=1;startArrow=none;startFill=0;endArrow=open;endFill=0;strokeColor=#808080;strokeWidth=2;" parent="1" source="UEzPUAAOIrF-is8g5C7q-148" target="UEzPUAAOIrF-is8g5C7q-149" edge="1">
          <mxGeometry relative="1" as="geometry">
            <Array as="points">
              <mxPoint x="346" y="-643" />
            </Array>
          </mxGeometry>
        </mxCell>
        <mxCell id="UEzPUAAOIrF-is8g5C7q-170" style="edgeStyle=orthogonalEdgeStyle;rounded=0;orthogonalLoop=1;jettySize=auto;html=1;startArrow=none;startFill=0;endArrow=open;endFill=0;strokeColor=#808080;strokeWidth=2;" parent="1" source="UEzPUAAOIrF-is8g5C7q-150" target="UEzPUAAOIrF-is8g5C7q-151" edge="1">
          <mxGeometry relative="1" as="geometry" />
        </mxCell>
        <mxCell id="UEzPUAAOIrF-is8g5C7q-171" style="edgeStyle=orthogonalEdgeStyle;rounded=0;orthogonalLoop=1;jettySize=auto;html=1;startArrow=none;startFill=0;endArrow=open;endFill=0;strokeColor=#808080;strokeWidth=2;" parent="1" source="UEzPUAAOIrF-is8g5C7q-151" target="UEzPUAAOIrF-is8g5C7q-152" edge="1">
          <mxGeometry relative="1" as="geometry" />
        </mxCell>
        <mxCell id="UEzPUAAOIrF-is8g5C7q-169" style="edgeStyle=orthogonalEdgeStyle;rounded=0;orthogonalLoop=1;jettySize=auto;html=1;startArrow=none;startFill=0;endArrow=open;endFill=0;strokeColor=#808080;strokeWidth=2;" parent="1" source="UEzPUAAOIrF-is8g5C7q-153" target="UEzPUAAOIrF-is8g5C7q-148" edge="1">
          <mxGeometry relative="1" as="geometry">
            <Array as="points">
              <mxPoint x="346" y="-394" />
            </Array>
          </mxGeometry>
        </mxCell>
        <mxCell id="UEzPUAAOIrF-is8g5C7q-172" style="edgeStyle=orthogonalEdgeStyle;rounded=0;orthogonalLoop=1;jettySize=auto;html=1;startArrow=none;startFill=0;endArrow=open;endFill=0;strokeColor=#808080;strokeWidth=2;" parent="1" source="UEzPUAAOIrF-is8g5C7q-156" target="UEzPUAAOIrF-is8g5C7q-158" edge="1">
          <mxGeometry relative="1" as="geometry">
            <Array as="points">
              <mxPoint x="950" y="-243" />
              <mxPoint x="950" y="-186" />
            </Array>
          </mxGeometry>
        </mxCell>
        <mxCell id="UEzPUAAOIrF-is8g5C7q-173" style="edgeStyle=orthogonalEdgeStyle;rounded=0;orthogonalLoop=1;jettySize=auto;html=1;startArrow=none;startFill=0;endArrow=open;endFill=0;strokeColor=#808080;strokeWidth=2;" parent="1" source="UEzPUAAOIrF-is8g5C7q-157" target="UEzPUAAOIrF-is8g5C7q-158" edge="1">
          <mxGeometry relative="1" as="geometry">
            <Array as="points">
              <mxPoint x="950" y="-135" />
              <mxPoint x="950" y="-186" />
            </Array>
          </mxGeometry>
        </mxCell>
        <mxCell id="UEzPUAAOIrF-is8g5C7q-174" style="edgeStyle=orthogonalEdgeStyle;rounded=0;orthogonalLoop=1;jettySize=auto;html=1;startArrow=none;startFill=0;endArrow=open;endFill=0;strokeColor=#808080;strokeWidth=2;" parent="1" source="UEzPUAAOIrF-is8g5C7q-161" target="UEzPUAAOIrF-is8g5C7q-153" edge="1">
          <mxGeometry relative="1" as="geometry">
            <Array as="points">
              <mxPoint x="1025" y="-394" />
            </Array>
          </mxGeometry>
        </mxCell>
        <mxCell id="UEzPUAAOIrF-is8g5C7q-144" value="Amazon CloudWatch" style="outlineConnect=0;fontColor=#232F3E;gradientColor=#F34482;gradientDirection=north;fillColor=#BC1356;strokeColor=#ffffff;dashed=0;verticalLabelPosition=bottom;verticalAlign=top;align=center;html=1;fontSize=12;fontStyle=0;aspect=fixed;shape=mxgraph.aws4.resourceIcon;resIcon=mxgraph.aws4.cloudwatch;labelBackgroundColor=#ffffff;spacingTop=5;" parent="1" vertex="1">
          <mxGeometry x="256" y="-794" width="78" height="78" as="geometry" />
        </mxCell>
        <mxCell id="UEzPUAAOIrF-is8g5C7q-145" value="Amazon SNS" style="outlineConnect=0;fontColor=#232F3E;gradientColor=#F34482;gradientDirection=north;fillColor=#BC1356;strokeColor=#ffffff;dashed=0;verticalLabelPosition=bottom;verticalAlign=top;align=center;html=1;fontSize=12;fontStyle=0;aspect=fixed;shape=mxgraph.aws4.resourceIcon;resIcon=mxgraph.aws4.sns;labelBackgroundColor=#ffffff;spacingTop=5;" parent="1" vertex="1">
          <mxGeometry x="416" y="-794" width="78" height="78" as="geometry" />
        </mxCell>
        <mxCell id="UEzPUAAOIrF-is8g5C7q-146" value="Amazon&lt;br&gt;CloudWatch Event&lt;br&gt;" style="outlineConnect=0;fontColor=#232F3E;gradientColor=none;fillColor=#BC1356;strokeColor=none;dashed=0;verticalLabelPosition=bottom;verticalAlign=top;align=center;html=1;fontSize=12;fontStyle=0;aspect=fixed;pointerEvents=1;shape=mxgraph.aws4.event_time_based;labelBackgroundColor=#ffffff;" parent="1" vertex="1">
          <mxGeometry x="46" y="-654" width="78" height="78" as="geometry" />
        </mxCell>
        <mxCell id="UEzPUAAOIrF-is8g5C7q-147" value="Amazon&lt;br&gt;CloudWatch Event&lt;br&gt;" style="outlineConnect=0;fontColor=#232F3E;gradientColor=none;fillColor=#BC1356;strokeColor=none;dashed=0;verticalLabelPosition=bottom;verticalAlign=top;align=center;html=1;fontSize=12;fontStyle=0;aspect=fixed;pointerEvents=1;shape=mxgraph.aws4.event_event_based;labelBackgroundColor=#ffffff;" parent="1" vertex="1">
          <mxGeometry x="46" y="-494" width="78" height="78" as="geometry" />
        </mxCell>
        <mxCell id="UEzPUAAOIrF-is8g5C7q-148" value="Lambda" style="outlineConnect=0;fontColor=#232F3E;gradientColor=#F78E04;gradientDirection=north;fillColor=#D05C17;strokeColor=#ffffff;dashed=0;verticalLabelPosition=bottom;verticalAlign=top;align=center;html=1;fontSize=12;fontStyle=0;aspect=fixed;shape=mxgraph.aws4.resourceIcon;resIcon=mxgraph.aws4.lambda;labelBackgroundColor=#ffffff;spacingTop=8;" parent="1" vertex="1">
          <mxGeometry x="286" y="-564" width="78" height="78" as="geometry" />
        </mxCell>
        <mxCell id="UEzPUAAOIrF-is8g5C7q-149" value="Amazon DynamoDB" style="outlineConnect=0;fontColor=#232F3E;gradientColor=#4D72F3;gradientDirection=north;fillColor=#3334B9;strokeColor=#ffffff;dashed=0;verticalLabelPosition=bottom;verticalAlign=top;align=center;html=1;fontSize=12;fontStyle=0;aspect=fixed;shape=mxgraph.aws4.resourceIcon;resIcon=mxgraph.aws4.dynamodb;labelBackgroundColor=#ffffff;" parent="1" vertex="1">
          <mxGeometry x="616" y="-682.5" width="78" height="78" as="geometry" />
        </mxCell>
        <mxCell id="UEzPUAAOIrF-is8g5C7q-150" value="Amazon SQS Queue" style="outlineConnect=0;fontColor=#232F3E;gradientColor=none;fillColor=#BC1356;strokeColor=none;dashed=0;verticalLabelPosition=bottom;verticalAlign=top;align=center;html=1;fontSize=12;fontStyle=0;aspect=fixed;pointerEvents=1;shape=mxgraph.aws4.queue;labelBackgroundColor=#ffffff;" parent="1" vertex="1">
          <mxGeometry x="286" y="-384" width="78" height="47" as="geometry" />
        </mxCell>
        <mxCell id="UEzPUAAOIrF-is8g5C7q-151" value="Lambda&lt;br&gt;Function&lt;br&gt;" style="outlineConnect=0;fontColor=#232F3E;gradientColor=none;fillColor=#D05C17;strokeColor=none;dashed=0;verticalLabelPosition=bottom;verticalAlign=top;align=center;html=1;fontSize=12;fontStyle=0;aspect=fixed;pointerEvents=1;shape=mxgraph.aws4.lambda_function;labelBackgroundColor=#ffffff;" parent="1" vertex="1">
          <mxGeometry x="286" y="-244" width="78" height="78" as="geometry" />
        </mxCell>
        <mxCell id="UEzPUAAOIrF-is8g5C7q-152" value="Amazon CloudWatch" style="outlineConnect=0;fontColor=#232F3E;gradientColor=#F34482;gradientDirection=north;fillColor=#BC1356;strokeColor=#ffffff;dashed=0;verticalLabelPosition=bottom;verticalAlign=top;align=center;html=1;fontSize=12;fontStyle=0;aspect=fixed;shape=mxgraph.aws4.resourceIcon;resIcon=mxgraph.aws4.cloudwatch;labelBackgroundColor=#ffffff;" parent="1" vertex="1">
          <mxGeometry x="486" y="-244" width="78" height="78" as="geometry" />
        </mxCell>
        <mxCell id="UEzPUAAOIrF-is8g5C7q-153" value="Amazon SNS&lt;br&gt;Topic&lt;br&gt;" style="outlineConnect=0;fontColor=#232F3E;gradientColor=none;fillColor=#BC1356;strokeColor=none;dashed=0;verticalLabelPosition=bottom;verticalAlign=top;align=center;html=1;fontSize=12;fontStyle=0;aspect=fixed;pointerEvents=1;shape=mxgraph.aws4.topic;labelBackgroundColor=#ffffff;" parent="1" vertex="1">
          <mxGeometry x="607" y="-428" width="78" height="67" as="geometry" />
        </mxCell>
        <mxCell id="UEzPUAAOIrF-is8g5C7q-154" value="AWS Cloud" style="points=[[0,0],[0.25,0],[0.5,0],[0.75,0],[1,0],[1,0.25],[1,0.5],[1,0.75],[1,1],[0.75,1],[0.5,1],[0.25,1],[0,1],[0,0.75],[0,0.5],[0,0.25]];outlineConnect=0;gradientColor=none;html=1;whiteSpace=wrap;fontSize=12;fontStyle=0;shape=mxgraph.aws4.group;grIcon=mxgraph.aws4.group_aws_cloud_alt;strokeColor=#232F3E;fillColor=none;verticalAlign=top;align=left;spacingLeft=30;fontColor=#232F3E;dashed=0;labelBackgroundColor=#ffffff;container=1;pointerEvents=0;collapsible=0;recursiveResize=0;" parent="1" vertex="1">
          <mxGeometry x="796" y="-734" width="320" height="311" as="geometry" />
        </mxCell>
        <mxCell id="UEzPUAAOIrF-is8g5C7q-155" value="" style="rounded=0;whiteSpace=wrap;html=1;dashed=1;labelBackgroundColor=#ffffff;fillColor=none;gradientColor=none;container=1;pointerEvents=0;collapsible=0;recursiveResize=0;" parent="1" vertex="1">
          <mxGeometry x="721" y="-344" width="185" height="310" as="geometry" />
        </mxCell>
        <mxCell id="UEzPUAAOIrF-is8g5C7q-156" value="Template" style="outlineConnect=0;fontColor=#232F3E;gradientColor=none;fillColor=#BC1356;strokeColor=none;dashed=0;verticalLabelPosition=bottom;verticalAlign=top;align=center;html=1;fontSize=12;fontStyle=0;aspect=fixed;pointerEvents=1;shape=mxgraph.aws4.template;labelBackgroundColor=#ffffff;" parent="1" vertex="1">
          <mxGeometry x="786" y="-282" width="65" height="78" as="geometry" />
        </mxCell>
        <mxCell id="UEzPUAAOIrF-is8g5C7q-157" value="Template" style="outlineConnect=0;fontColor=#232F3E;gradientColor=none;fillColor=#BC1356;strokeColor=none;dashed=0;verticalLabelPosition=bottom;verticalAlign=top;align=center;html=1;fontSize=12;fontStyle=0;aspect=fixed;pointerEvents=1;shape=mxgraph.aws4.template;labelBackgroundColor=#ffffff;" parent="1" vertex="1">
          <mxGeometry x="786" y="-174" width="65" height="78" as="geometry" />
        </mxCell>
        <mxCell id="UEzPUAAOIrF-is8g5C7q-158" value="Amazon S3&lt;br&gt;Bucket&lt;br&gt;" style="outlineConnect=0;fontColor=#232F3E;gradientColor=none;fillColor=#277116;strokeColor=none;dashed=0;verticalLabelPosition=bottom;verticalAlign=top;align=center;html=1;fontSize=12;fontStyle=0;aspect=fixed;pointerEvents=1;shape=mxgraph.aws4.bucket_with_objects;labelBackgroundColor=#ffffff;" parent="1" vertex="1">
          <mxGeometry x="1008.5" y="-225" width="75" height="78" as="geometry" />
        </mxCell>
        <mxCell id="UEzPUAAOIrF-is8g5C7q-159" value="Cross-Account&lt;br&gt;Role&lt;br&gt;" style="outlineConnect=0;fontColor=#232F3E;gradientColor=none;fillColor=#C7131F;strokeColor=none;dashed=0;verticalLabelPosition=bottom;verticalAlign=top;align=center;html=1;fontSize=12;fontStyle=0;aspect=fixed;pointerEvents=1;shape=mxgraph.aws4.role;labelBackgroundColor=#ffffff;" parent="1" vertex="1">
          <mxGeometry x="851" y="-576" width="78" height="44" as="geometry" />
        </mxCell>
        <mxCell id="UEzPUAAOIrF-is8g5C7q-160" value="CloudWatch&lt;br&gt;Event&lt;br&gt;" style="outlineConnect=0;fontColor=#232F3E;gradientColor=none;fillColor=#BC1356;strokeColor=none;dashed=0;verticalLabelPosition=bottom;verticalAlign=top;align=center;html=1;fontSize=12;fontStyle=0;aspect=fixed;pointerEvents=1;shape=mxgraph.aws4.event_event_based;labelBackgroundColor=#ffffff;" parent="1" vertex="1">
          <mxGeometry x="986" y="-716" width="78" height="78" as="geometry" />
        </mxCell>
        <mxCell id="UEzPUAAOIrF-is8g5C7q-161" value="Lambda&lt;br&gt;Function&lt;br&gt;" style="outlineConnect=0;fontColor=#232F3E;gradientColor=none;fillColor=#D05C17;strokeColor=none;dashed=0;verticalLabelPosition=bottom;verticalAlign=top;align=center;html=1;fontSize=12;fontStyle=0;aspect=fixed;pointerEvents=1;shape=mxgraph.aws4.lambda_function;labelBackgroundColor=#ffffff;" parent="1" vertex="1">
          <mxGeometry x="986" y="-584" width="78" height="78" as="geometry" />
        </mxCell>
        <mxCell id="9G7zbOAQeBJa7XBP9B1H-2" value="Video" style="html=1;whiteSpace=wrap;strokeColor=none;fillColor=#0079D6;labelPosition=center;verticalLabelPosition=middle;verticalAlign=top;align=center;fontSize=12;outlineConnect=0;spacingTop=-6;fontColor=#FFFFFF;sketch=0;shape=mxgraph.sitemap.video;" parent="1" vertex="1">
          <mxGeometry x="100" y="-120" width="120" height="70" as="geometry" />
        </mxCell>
        <mxCell id="9G7zbOAQeBJa7XBP9B1H-11" value="" style="image;aspect=fixed;html=1;points=[];align=center;fontSize=12;image=img/lib/azure2/networking/Front_Doors.svg;" parent="1" vertex="1">
          <mxGeometry x="320" y="70" width="68" height="60" as="geometry" />
        </mxCell>
        <mxCell id="9G7zbOAQeBJa7XBP9B1H-13" value="" style="sketch=0;outlineConnect=0;fontColor=#232F3E;gradientColor=none;fillColor=#232F3D;strokeColor=none;dashed=0;verticalLabelPosition=bottom;verticalAlign=top;align=center;html=1;fontSize=12;fontStyle=0;aspect=fixed;pointerEvents=1;shape=mxgraph.aws4.client;" parent="1" vertex="1">
          <mxGeometry x="870" y="140" width="78" height="76" as="geometry" />
        </mxCell>
        <mxCell id="9G7zbOAQeBJa7XBP9B1H-15" value="" style="sketch=0;outlineConnect=0;fontColor=#232F3E;gradientColor=none;fillColor=#232F3D;strokeColor=none;dashed=0;verticalLabelPosition=bottom;verticalAlign=top;align=center;html=1;fontSize=12;fontStyle=0;aspect=fixed;pointerEvents=1;shape=mxgraph.aws4.chat;" parent="1" vertex="1">
          <mxGeometry x="507" y="2" width="78" height="68" as="geometry" />
        </mxCell>
        <mxCell id="9G7zbOAQeBJa7XBP9B1H-17" value="AWS Cloud" style="points=[[0,0],[0.25,0],[0.5,0],[0.75,0],[1,0],[1,0.25],[1,0.5],[1,0.75],[1,1],[0.75,1],[0.5,1],[0.25,1],[0,1],[0,0.75],[0,0.5],[0,0.25]];outlineConnect=0;gradientColor=none;html=1;whiteSpace=wrap;fontSize=12;fontStyle=0;container=1;pointerEvents=0;collapsible=0;recursiveResize=0;shape=mxgraph.aws4.group;grIcon=mxgraph.aws4.group_aws_cloud_alt;strokeColor=#232F3E;fillColor=none;verticalAlign=top;align=left;spacingLeft=30;fontColor=#232F3E;dashed=0;" parent="1" vertex="1">
          <mxGeometry x="360" y="530" width="701.62" height="1030" as="geometry" />
        </mxCell>
        <mxCell id="e3buDwDWEeGiWqqK8DOD-30" value="" style="outlineConnect=0;dashed=0;verticalLabelPosition=bottom;verticalAlign=top;align=center;html=1;shape=mxgraph.aws3.android;fillColor=#8CC64F;gradientColor=none;" vertex="1" parent="9G7zbOAQeBJa7XBP9B1H-17">
          <mxGeometry x="295.87" y="665" width="39.5" height="43" as="geometry" />
        </mxCell>
        <mxCell id="e3buDwDWEeGiWqqK8DOD-81" style="edgeStyle=orthogonalEdgeStyle;rounded=0;orthogonalLoop=1;jettySize=auto;html=1;fillColor=#f8cecc;strokeColor=#b85450;" edge="1" parent="9G7zbOAQeBJa7XBP9B1H-17">
          <mxGeometry relative="1" as="geometry">
            <mxPoint x="280" y="678" as="sourcePoint" />
            <mxPoint x="147.3800000000001" y="678" as="targetPoint" />
            <Array as="points">
              <mxPoint x="180" y="678" />
              <mxPoint x="180" y="678" />
            </Array>
          </mxGeometry>
        </mxCell>
        <mxCell id="e3buDwDWEeGiWqqK8DOD-82" value="&lt;font style=&quot;font-size: 14px;&quot;&gt;Create&lt;/font&gt;" style="edgeLabel;html=1;align=center;verticalAlign=middle;resizable=0;points=[];" vertex="1" connectable="0" parent="e3buDwDWEeGiWqqK8DOD-81">
          <mxGeometry x="0.0713" y="2" relative="1" as="geometry">
            <mxPoint y="-12" as="offset" />
          </mxGeometry>
        </mxCell>
        <mxCell id="e3buDwDWEeGiWqqK8DOD-83" style="edgeStyle=orthogonalEdgeStyle;rounded=0;orthogonalLoop=1;jettySize=auto;html=1;fillColor=#e1d5e7;strokeColor=#9673a6;" edge="1" parent="9G7zbOAQeBJa7XBP9B1H-17">
          <mxGeometry relative="1" as="geometry">
            <mxPoint x="280" y="694.5555555555557" as="sourcePoint" />
            <mxPoint x="147.3800000000001" y="694" as="targetPoint" />
          </mxGeometry>
        </mxCell>
        <mxCell id="e3buDwDWEeGiWqqK8DOD-84" value="&lt;font style=&quot;font-size: 14px;&quot;&gt;Update&lt;/font&gt;" style="edgeLabel;html=1;align=center;verticalAlign=middle;resizable=0;points=[];" vertex="1" connectable="0" parent="e3buDwDWEeGiWqqK8DOD-83">
          <mxGeometry x="0.0546" y="4" relative="1" as="geometry">
            <mxPoint y="5" as="offset" />
          </mxGeometry>
        </mxCell>
        <mxCell id="e3buDwDWEeGiWqqK8DOD-87" style="edgeStyle=orthogonalEdgeStyle;rounded=0;orthogonalLoop=1;jettySize=auto;html=1;fillColor=#f8cecc;strokeColor=#b85450;" edge="1" parent="9G7zbOAQeBJa7XBP9B1H-17">
          <mxGeometry relative="1" as="geometry">
            <mxPoint x="321.66666666666697" y="645.0000000000005" as="sourcePoint" />
            <mxPoint x="322.5555555555552" y="521" as="targetPoint" />
          </mxGeometry>
        </mxCell>
        <mxCell id="e3buDwDWEeGiWqqK8DOD-89" value="&lt;font style=&quot;font-size: 14px;&quot;&gt;Response&lt;/font&gt;" style="edgeLabel;html=1;align=center;verticalAlign=middle;resizable=0;points=[];" vertex="1" connectable="0" parent="e3buDwDWEeGiWqqK8DOD-87">
          <mxGeometry x="0.041" y="1" relative="1" as="geometry">
            <mxPoint x="34" y="1" as="offset" />
          </mxGeometry>
        </mxCell>
        <mxCell id="e3buDwDWEeGiWqqK8DOD-3" value="" style="pointerEvents=1;shadow=0;dashed=0;html=1;strokeColor=none;fillColor=#ff7cff;labelPosition=center;verticalLabelPosition=bottom;verticalAlign=top;align=center;outlineConnect=0;shape=mxgraph.veeam.cpu;" vertex="1" parent="9G7zbOAQeBJa7XBP9B1H-17">
          <mxGeometry x="274" y="645" width="83.25" height="83" as="geometry" />
        </mxCell>
        <mxCell id="e3buDwDWEeGiWqqK8DOD-31" value="EC2&amp;nbsp;Node.js" style="text;html=1;align=center;verticalAlign=middle;resizable=0;points=[];autosize=1;strokeColor=none;fillColor=none;" vertex="1" parent="9G7zbOAQeBJa7XBP9B1H-17">
          <mxGeometry x="277" y="736" width="90" height="30" as="geometry" />
        </mxCell>
        <mxCell id="e3buDwDWEeGiWqqK8DOD-50" style="edgeStyle=orthogonalEdgeStyle;rounded=0;orthogonalLoop=1;jettySize=auto;html=1;fillColor=#e1d5e7;strokeColor=#9673a6;" edge="1" parent="9G7zbOAQeBJa7XBP9B1H-17" source="e3buDwDWEeGiWqqK8DOD-42" target="e3buDwDWEeGiWqqK8DOD-49">
          <mxGeometry relative="1" as="geometry" />
        </mxCell>
        <mxCell id="e3buDwDWEeGiWqqK8DOD-51" value="Trigger" style="edgeLabel;html=1;align=center;verticalAlign=middle;resizable=0;points=[];fontSize=14;" vertex="1" connectable="0" parent="e3buDwDWEeGiWqqK8DOD-50">
          <mxGeometry x="-0.2209" y="1" relative="1" as="geometry">
            <mxPoint x="8" y="-11" as="offset" />
          </mxGeometry>
        </mxCell>
        <mxCell id="e3buDwDWEeGiWqqK8DOD-42" value="Amazon S3&lt;br&gt;Bucket&lt;br&gt;" style="outlineConnect=0;fontColor=#232F3E;gradientColor=none;fillColor=#277116;strokeColor=none;dashed=0;verticalLabelPosition=bottom;verticalAlign=top;align=center;html=1;fontSize=12;fontStyle=0;aspect=fixed;pointerEvents=1;shape=mxgraph.aws4.bucket_with_objects;labelBackgroundColor=#ffffff;" vertex="1" parent="9G7zbOAQeBJa7XBP9B1H-17">
          <mxGeometry x="72.38" y="895" width="75" height="78" as="geometry" />
        </mxCell>
        <mxCell id="e3buDwDWEeGiWqqK8DOD-4" value="" style="sketch=0;outlineConnect=0;fontColor=#232F3E;gradientColor=none;fillColor=#C925D1;strokeColor=none;dashed=0;verticalLabelPosition=bottom;verticalAlign=top;align=center;html=1;fontSize=12;fontStyle=0;aspect=fixed;pointerEvents=1;shape=mxgraph.aws4.rds_instance;" vertex="1" parent="9G7zbOAQeBJa7XBP9B1H-17">
          <mxGeometry x="69.38" y="647" width="78" height="78" as="geometry" />
        </mxCell>
        <mxCell id="e3buDwDWEeGiWqqK8DOD-53" style="edgeStyle=orthogonalEdgeStyle;rounded=0;orthogonalLoop=1;jettySize=auto;html=1;fillColor=#e1d5e7;strokeColor=#9673a6;" edge="1" parent="9G7zbOAQeBJa7XBP9B1H-17" source="e3buDwDWEeGiWqqK8DOD-49" target="e3buDwDWEeGiWqqK8DOD-52">
          <mxGeometry relative="1" as="geometry" />
        </mxCell>
        <mxCell id="e3buDwDWEeGiWqqK8DOD-54" value="Push Task" style="edgeLabel;html=1;align=center;verticalAlign=middle;resizable=0;points=[];fontSize=14;" vertex="1" connectable="0" parent="e3buDwDWEeGiWqqK8DOD-53">
          <mxGeometry x="-0.0488" y="3" relative="1" as="geometry">
            <mxPoint x="1" y="-10" as="offset" />
          </mxGeometry>
        </mxCell>
        <mxCell id="e3buDwDWEeGiWqqK8DOD-49" value="Lambda&lt;br&gt;Function&lt;br&gt;" style="outlineConnect=0;fontColor=#232F3E;gradientColor=none;fillColor=#D05C17;strokeColor=none;dashed=0;verticalLabelPosition=bottom;verticalAlign=top;align=center;html=1;fontSize=12;fontStyle=0;aspect=fixed;pointerEvents=1;shape=mxgraph.aws4.lambda_function;labelBackgroundColor=#ffffff;" vertex="1" parent="9G7zbOAQeBJa7XBP9B1H-17">
          <mxGeometry x="287" y="895" width="78" height="78" as="geometry" />
        </mxCell>
        <mxCell id="e3buDwDWEeGiWqqK8DOD-69" style="edgeStyle=orthogonalEdgeStyle;rounded=0;orthogonalLoop=1;jettySize=auto;html=1;fillColor=#e1d5e7;strokeColor=#9673a6;" edge="1" parent="9G7zbOAQeBJa7XBP9B1H-17" source="e3buDwDWEeGiWqqK8DOD-52" target="9G7zbOAQeBJa7XBP9B1H-52">
          <mxGeometry relative="1" as="geometry" />
        </mxCell>
        <mxCell id="e3buDwDWEeGiWqqK8DOD-71" value="&lt;span style=&quot;font-size: 14px;&quot;&gt;Receive Task&lt;/span&gt;" style="edgeLabel;html=1;align=center;verticalAlign=middle;resizable=0;points=[];horizontal=1;" vertex="1" connectable="0" parent="e3buDwDWEeGiWqqK8DOD-69">
          <mxGeometry x="0.2191" y="1" relative="1" as="geometry">
            <mxPoint x="46" y="2" as="offset" />
          </mxGeometry>
        </mxCell>
        <mxCell id="e3buDwDWEeGiWqqK8DOD-52" value="Amazon SQS Queue" style="outlineConnect=0;fontColor=#232F3E;gradientColor=none;fillColor=#BC1356;strokeColor=none;dashed=0;verticalLabelPosition=bottom;verticalAlign=top;align=center;html=1;fontSize=12;fontStyle=0;aspect=fixed;pointerEvents=1;shape=mxgraph.aws4.queue;labelBackgroundColor=#ffffff;" vertex="1" parent="9G7zbOAQeBJa7XBP9B1H-17">
          <mxGeometry x="496" y="897.5" width="121.12" height="73" as="geometry" />
        </mxCell>
        <mxCell id="9G7zbOAQeBJa7XBP9B1H-12" value="" style="outlineConnect=0;dashed=0;verticalLabelPosition=bottom;verticalAlign=top;align=center;html=1;shape=mxgraph.aws3.android;fillColor=#8CC64F;gradientColor=none;" parent="9G7zbOAQeBJa7XBP9B1H-17" vertex="1">
          <mxGeometry x="541.81" y="802.12" width="29.5" height="27.88" as="geometry" />
        </mxCell>
        <mxCell id="e3buDwDWEeGiWqqK8DOD-61" style="edgeStyle=orthogonalEdgeStyle;rounded=0;orthogonalLoop=1;jettySize=auto;html=1;fillColor=#e1d5e7;strokeColor=#9673a6;" edge="1" parent="9G7zbOAQeBJa7XBP9B1H-17" source="9G7zbOAQeBJa7XBP9B1H-52" target="e3buDwDWEeGiWqqK8DOD-60">
          <mxGeometry relative="1" as="geometry" />
        </mxCell>
        <mxCell id="e3buDwDWEeGiWqqK8DOD-62" value="Push Result" style="edgeLabel;html=1;align=center;verticalAlign=middle;resizable=0;points=[];fontSize=14;horizontal=1;" vertex="1" connectable="0" parent="e3buDwDWEeGiWqqK8DOD-61">
          <mxGeometry x="0.1981" y="-2" relative="1" as="geometry">
            <mxPoint x="38" y="15" as="offset" />
          </mxGeometry>
        </mxCell>
        <mxCell id="e3buDwDWEeGiWqqK8DOD-67" style="edgeStyle=orthogonalEdgeStyle;rounded=0;orthogonalLoop=1;jettySize=auto;html=1;fillColor=#e1d5e7;strokeColor=#9673a6;" edge="1" parent="9G7zbOAQeBJa7XBP9B1H-17" source="9G7zbOAQeBJa7XBP9B1H-52" target="e3buDwDWEeGiWqqK8DOD-42">
          <mxGeometry relative="1" as="geometry" />
        </mxCell>
        <mxCell id="e3buDwDWEeGiWqqK8DOD-68" value="&lt;font style=&quot;font-size: 14px;&quot;&gt;Upload Converted Videos&lt;/font&gt;" style="edgeLabel;html=1;align=center;verticalAlign=middle;resizable=0;points=[];" vertex="1" connectable="0" parent="e3buDwDWEeGiWqqK8DOD-67">
          <mxGeometry x="-0.391" y="1" relative="1" as="geometry">
            <mxPoint x="-9" y="-11" as="offset" />
          </mxGeometry>
        </mxCell>
        <mxCell id="9G7zbOAQeBJa7XBP9B1H-52" value="" style="sketch=0;outlineConnect=0;fontColor=#232F3E;gradientColor=none;fillColor=#ED7100;strokeColor=none;dashed=0;verticalLabelPosition=bottom;verticalAlign=top;align=center;html=1;fontSize=12;fontStyle=0;aspect=fixed;pointerEvents=1;shape=mxgraph.aws4.auto_scaling2;" parent="9G7zbOAQeBJa7XBP9B1H-17" vertex="1">
          <mxGeometry x="506.5" y="766" width="100.12" height="100.12" as="geometry" />
        </mxCell>
        <mxCell id="e3buDwDWEeGiWqqK8DOD-59" value="ECS Scaling" style="text;html=1;align=center;verticalAlign=middle;resizable=0;points=[];autosize=1;strokeColor=none;fillColor=none;fontSize=14;" vertex="1" parent="9G7zbOAQeBJa7XBP9B1H-17">
          <mxGeometry x="601.62" y="799.9999999999999" width="100" height="30" as="geometry" />
        </mxCell>
        <mxCell id="e3buDwDWEeGiWqqK8DOD-72" style="edgeStyle=orthogonalEdgeStyle;rounded=0;orthogonalLoop=1;jettySize=auto;html=1;fillColor=#e1d5e7;strokeColor=#9673a6;" edge="1" parent="9G7zbOAQeBJa7XBP9B1H-17" source="e3buDwDWEeGiWqqK8DOD-60" target="e3buDwDWEeGiWqqK8DOD-3">
          <mxGeometry relative="1" as="geometry" />
        </mxCell>
        <mxCell id="e3buDwDWEeGiWqqK8DOD-73" value="&lt;span style=&quot;font-size: 15px;&quot;&gt;Receive Result&lt;/span&gt;" style="edgeLabel;html=1;align=center;verticalAlign=middle;resizable=0;points=[];" vertex="1" connectable="0" parent="e3buDwDWEeGiWqqK8DOD-72">
          <mxGeometry x="0.0213" y="-1" relative="1" as="geometry">
            <mxPoint x="4" y="-12" as="offset" />
          </mxGeometry>
        </mxCell>
        <mxCell id="e3buDwDWEeGiWqqK8DOD-60" value="Amazon SQS Queue" style="outlineConnect=0;fontColor=#232F3E;gradientColor=none;fillColor=#BC1356;strokeColor=none;dashed=0;verticalLabelPosition=bottom;verticalAlign=top;align=center;html=1;fontSize=12;fontStyle=0;aspect=fixed;pointerEvents=1;shape=mxgraph.aws4.queue;labelBackgroundColor=#ffffff;" vertex="1" parent="9G7zbOAQeBJa7XBP9B1H-17">
          <mxGeometry x="496" y="650.22" width="121.12" height="73" as="geometry" />
        </mxCell>
        <mxCell id="e3buDwDWEeGiWqqK8DOD-85" style="edgeStyle=orthogonalEdgeStyle;rounded=0;orthogonalLoop=1;jettySize=auto;html=1;fillColor=#f8cecc;strokeColor=#b85450;" edge="1" parent="9G7zbOAQeBJa7XBP9B1H-17">
          <mxGeometry relative="1" as="geometry">
            <mxPoint x="306.99999999999955" y="521" as="sourcePoint" />
            <mxPoint x="306.99999999999955" y="645.0000000000005" as="targetPoint" />
            <Array as="points">
              <mxPoint x="307" y="573" />
              <mxPoint x="307" y="573" />
            </Array>
          </mxGeometry>
        </mxCell>
        <mxCell id="e3buDwDWEeGiWqqK8DOD-88" value="&lt;font style=&quot;font-size: 14px;&quot;&gt;Request&lt;/font&gt;" style="edgeLabel;html=1;align=center;verticalAlign=middle;resizable=0;points=[];" vertex="1" connectable="0" parent="e3buDwDWEeGiWqqK8DOD-85">
          <mxGeometry x="-0.0341" y="-1" relative="1" as="geometry">
            <mxPoint x="-30" as="offset" />
          </mxGeometry>
        </mxCell>
        <mxCell id="e3buDwDWEeGiWqqK8DOD-95" style="edgeStyle=orthogonalEdgeStyle;rounded=0;orthogonalLoop=1;jettySize=auto;html=1;fillColor=#dae8fc;strokeColor=#6c8ebf;" edge="1" parent="9G7zbOAQeBJa7XBP9B1H-17" source="9G7zbOAQeBJa7XBP9B1H-48" target="e3buDwDWEeGiWqqK8DOD-2">
          <mxGeometry relative="1" as="geometry">
            <Array as="points">
              <mxPoint x="480" y="470" />
              <mxPoint x="480" y="470" />
            </Array>
          </mxGeometry>
        </mxCell>
        <mxCell id="e3buDwDWEeGiWqqK8DOD-96" value="&lt;font style=&quot;font-size: 14px;&quot;&gt;Request&lt;/font&gt;" style="edgeLabel;html=1;align=center;verticalAlign=middle;resizable=0;points=[];" vertex="1" connectable="0" parent="e3buDwDWEeGiWqqK8DOD-95">
          <mxGeometry x="-0.1242" y="1" relative="1" as="geometry">
            <mxPoint y="-9" as="offset" />
          </mxGeometry>
        </mxCell>
        <mxCell id="9G7zbOAQeBJa7XBP9B1H-48" value="" style="outlineConnect=0;dashed=0;verticalLabelPosition=bottom;verticalAlign=top;align=center;html=1;shape=mxgraph.aws3.api_gateway;fillColor=#D9A741;gradientColor=none;" parent="9G7zbOAQeBJa7XBP9B1H-17" vertex="1">
          <mxGeometry x="275" y="428" width="83" height="93" as="geometry" />
        </mxCell>
        <mxCell id="9G7zbOAQeBJa7XBP9B1H-14" value="" style="sketch=0;outlineConnect=0;fontColor=#232F3E;gradientColor=none;fillColor=#232F3D;strokeColor=none;dashed=0;verticalLabelPosition=bottom;verticalAlign=top;align=center;html=1;fontSize=12;fontStyle=0;aspect=fixed;pointerEvents=1;shape=mxgraph.aws4.authenticated_user;" parent="9G7zbOAQeBJa7XBP9B1H-17" vertex="1">
          <mxGeometry x="-486.5" y="264.87" width="78" height="78" as="geometry" />
        </mxCell>
        <mxCell id="9G7zbOAQeBJa7XBP9B1H-31" value="" style="outlineConnect=0;dashed=0;verticalLabelPosition=bottom;verticalAlign=top;align=center;html=1;shape=mxgraph.aws3.cognito;fillColor=#AD688B;gradientColor=none;" parent="9G7zbOAQeBJa7XBP9B1H-17" vertex="1">
          <mxGeometry x="57.5" y="261.62" width="76.5" height="83.25" as="geometry" />
        </mxCell>
        <mxCell id="e3buDwDWEeGiWqqK8DOD-20" value="Cognito" style="text;html=1;align=center;verticalAlign=middle;resizable=0;points=[];autosize=1;strokeColor=none;fillColor=none;fontSize=14;" vertex="1" parent="9G7zbOAQeBJa7XBP9B1H-17">
          <mxGeometry x="134" y="292.87" width="70" height="30" as="geometry" />
        </mxCell>
        <mxCell id="e3buDwDWEeGiWqqK8DOD-97" style="edgeStyle=orthogonalEdgeStyle;rounded=0;orthogonalLoop=1;jettySize=auto;html=1;fillColor=#dae8fc;strokeColor=#6c8ebf;" edge="1" parent="9G7zbOAQeBJa7XBP9B1H-17">
          <mxGeometry relative="1" as="geometry">
            <mxPoint x="517.56" y="485" as="sourcePoint" />
            <mxPoint x="358" y="485" as="targetPoint" />
            <Array as="points">
              <mxPoint x="438" y="485" />
              <mxPoint x="438" y="485" />
            </Array>
          </mxGeometry>
        </mxCell>
        <mxCell id="e3buDwDWEeGiWqqK8DOD-98" value="&lt;font style=&quot;font-size: 14px;&quot;&gt;Response&lt;/font&gt;" style="edgeLabel;html=1;align=center;verticalAlign=middle;resizable=0;points=[];" vertex="1" connectable="0" parent="e3buDwDWEeGiWqqK8DOD-97">
          <mxGeometry x="0.0933" y="2" relative="1" as="geometry">
            <mxPoint x="1" y="9" as="offset" />
          </mxGeometry>
        </mxCell>
        <mxCell id="e3buDwDWEeGiWqqK8DOD-99" style="edgeStyle=orthogonalEdgeStyle;rounded=0;orthogonalLoop=1;jettySize=auto;html=1;fillColor=#dae8fc;strokeColor=#6c8ebf;" edge="1" parent="9G7zbOAQeBJa7XBP9B1H-17" source="e3buDwDWEeGiWqqK8DOD-2" target="e3buDwDWEeGiWqqK8DOD-93">
          <mxGeometry relative="1" as="geometry">
            <Array as="points">
              <mxPoint x="550" y="320" />
              <mxPoint x="550" y="320" />
            </Array>
          </mxGeometry>
        </mxCell>
        <mxCell id="e3buDwDWEeGiWqqK8DOD-104" value="Request" style="edgeLabel;html=1;align=center;verticalAlign=middle;resizable=0;points=[];fontSize=14;horizontal=0;" vertex="1" connectable="0" parent="e3buDwDWEeGiWqqK8DOD-99">
          <mxGeometry x="-0.1646" y="-2" relative="1" as="geometry">
            <mxPoint x="-15" as="offset" />
          </mxGeometry>
        </mxCell>
        <mxCell id="e3buDwDWEeGiWqqK8DOD-2" value="" style="sketch=0;outlineConnect=0;fontColor=#232F3E;gradientColor=none;fillColor=#8C4FFF;strokeColor=none;dashed=0;verticalLabelPosition=bottom;verticalAlign=top;align=center;html=1;fontSize=12;fontStyle=0;aspect=fixed;pointerEvents=1;shape=mxgraph.aws4.cloudfront_functions;" vertex="1" parent="9G7zbOAQeBJa7XBP9B1H-17">
          <mxGeometry x="517.56" y="435" width="78" height="78" as="geometry" />
        </mxCell>
        <mxCell id="e3buDwDWEeGiWqqK8DOD-92" value="&lt;font style=&quot;font-size: 14px;&quot;&gt;API Gateway&lt;/font&gt;" style="text;html=1;align=center;verticalAlign=middle;resizable=0;points=[];autosize=1;strokeColor=none;fillColor=none;" vertex="1" parent="9G7zbOAQeBJa7XBP9B1H-17">
          <mxGeometry x="330" y="513" width="110" height="30" as="geometry" />
        </mxCell>
        <mxCell id="e3buDwDWEeGiWqqK8DOD-105" style="edgeStyle=orthogonalEdgeStyle;rounded=0;orthogonalLoop=1;jettySize=auto;html=1;fillColor=#dae8fc;strokeColor=#6c8ebf;" edge="1" parent="9G7zbOAQeBJa7XBP9B1H-17">
          <mxGeometry relative="1" as="geometry">
            <mxPoint x="561.5555555555557" y="278" as="sourcePoint" />
            <mxPoint x="560.5555555555552" y="435" as="targetPoint" />
          </mxGeometry>
        </mxCell>
        <mxCell id="e3buDwDWEeGiWqqK8DOD-106" value="Response" style="edgeLabel;html=1;align=center;verticalAlign=middle;resizable=0;points=[];fontSize=14;horizontal=0;" vertex="1" connectable="0" parent="e3buDwDWEeGiWqqK8DOD-105">
          <mxGeometry x="0.2068" y="2" relative="1" as="geometry">
            <mxPoint x="10" as="offset" />
          </mxGeometry>
        </mxCell>
        <mxCell id="e3buDwDWEeGiWqqK8DOD-93" value="Amazon S3&lt;br&gt;Bucket&lt;br&gt;" style="outlineConnect=0;fontColor=#232F3E;gradientColor=none;fillColor=#277116;strokeColor=none;dashed=0;verticalLabelPosition=bottom;verticalAlign=top;align=center;html=1;fontSize=12;fontStyle=0;aspect=fixed;pointerEvents=1;shape=mxgraph.aws4.bucket_with_objects;labelBackgroundColor=#ffffff;" vertex="1" parent="9G7zbOAQeBJa7XBP9B1H-17">
          <mxGeometry x="520.1199999999999" y="200" width="75" height="78" as="geometry" />
        </mxCell>
        <mxCell id="e3buDwDWEeGiWqqK8DOD-94" value="&lt;font style=&quot;font-size: 14px;&quot;&gt;CloudFront&lt;/font&gt;" style="text;html=1;align=center;verticalAlign=middle;resizable=0;points=[];autosize=1;strokeColor=none;fillColor=none;" vertex="1" parent="9G7zbOAQeBJa7XBP9B1H-17">
          <mxGeometry x="516.62" y="513" width="90" height="30" as="geometry" />
        </mxCell>
        <mxCell id="9G7zbOAQeBJa7XBP9B1H-23" value="EC2" style="text;html=1;align=center;verticalAlign=middle;resizable=0;points=[];autosize=1;strokeColor=none;fillColor=none;" parent="1" vertex="1">
          <mxGeometry x="5" y="-282" width="50" height="30" as="geometry" />
        </mxCell>
        <mxCell id="9G7zbOAQeBJa7XBP9B1H-24" value="Auto&amp;nbsp;scaling" style="text;html=1;align=center;verticalAlign=middle;resizable=0;points=[];autosize=1;strokeColor=none;fillColor=none;" parent="1" vertex="1">
          <mxGeometry x="55" y="-182" width="90" height="30" as="geometry" />
        </mxCell>
        <mxCell id="9G7zbOAQeBJa7XBP9B1H-26" value="rds" style="text;html=1;align=center;verticalAlign=middle;resizable=0;points=[];autosize=1;strokeColor=none;fillColor=none;" parent="1" vertex="1">
          <mxGeometry x="390" y="38" width="40" height="30" as="geometry" />
        </mxCell>
        <mxCell id="9G7zbOAQeBJa7XBP9B1H-27" value="node" style="text;html=1;align=center;verticalAlign=middle;resizable=0;points=[];autosize=1;strokeColor=none;fillColor=none;" parent="1" vertex="1">
          <mxGeometry x="635" y="268" width="50" height="30" as="geometry" />
        </mxCell>
        <mxCell id="9G7zbOAQeBJa7XBP9B1H-28" value="message" style="text;html=1;align=center;verticalAlign=middle;resizable=0;points=[];autosize=1;strokeColor=none;fillColor=none;" parent="1" vertex="1">
          <mxGeometry x="485" y="128" width="70" height="30" as="geometry" />
        </mxCell>
        <mxCell id="9G7zbOAQeBJa7XBP9B1H-29" value="front" style="text;html=1;align=center;verticalAlign=middle;resizable=0;points=[];autosize=1;strokeColor=none;fillColor=none;" parent="1" vertex="1">
          <mxGeometry x="315" y="128" width="50" height="30" as="geometry" />
        </mxCell>
        <mxCell id="9G7zbOAQeBJa7XBP9B1H-30" value="client" style="text;html=1;align=center;verticalAlign=middle;resizable=0;points=[];autosize=1;strokeColor=none;fillColor=none;" parent="1" vertex="1">
          <mxGeometry x="879" y="220" width="50" height="30" as="geometry" />
        </mxCell>
        <mxCell id="9G7zbOAQeBJa7XBP9B1H-32" value="cognito" style="text;html=1;align=center;verticalAlign=middle;resizable=0;points=[];autosize=1;strokeColor=none;fillColor=none;" parent="1" vertex="1">
          <mxGeometry x="60" y="-712" width="60" height="30" as="geometry" />
        </mxCell>
        <mxCell id="9G7zbOAQeBJa7XBP9B1H-33" value="" style="outlineConnect=0;dashed=0;verticalLabelPosition=bottom;verticalAlign=top;align=center;html=1;shape=mxgraph.aws3.route_53;fillColor=#F58536;gradientColor=none;" parent="1" vertex="1">
          <mxGeometry x="620" y="-827" width="70.5" height="85.5" as="geometry" />
        </mxCell>
        <mxCell id="9G7zbOAQeBJa7XBP9B1H-34" value="route53" style="text;html=1;align=center;verticalAlign=middle;resizable=0;points=[];autosize=1;strokeColor=none;fillColor=none;" parent="1" vertex="1">
          <mxGeometry x="620" y="-742" width="60" height="30" as="geometry" />
        </mxCell>
        <mxCell id="9G7zbOAQeBJa7XBP9B1H-47" value="cloudfront" style="text;html=1;align=center;verticalAlign=middle;resizable=0;points=[];autosize=1;strokeColor=none;fillColor=none;" parent="1" vertex="1">
          <mxGeometry x="50" y="168" width="80" height="30" as="geometry" />
        </mxCell>
        <mxCell id="9G7zbOAQeBJa7XBP9B1H-50" value="" style="outlineConnect=0;dashed=0;verticalLabelPosition=bottom;verticalAlign=top;align=center;html=1;shape=mxgraph.aws3.application_load_balancer;fillColor=#F58534;gradientColor=none;" parent="1" vertex="1">
          <mxGeometry x="311" y="220" width="69" height="72" as="geometry" />
        </mxCell>
        <mxCell id="9G7zbOAQeBJa7XBP9B1H-51" value="balancer" style="text;html=1;align=center;verticalAlign=middle;resizable=0;points=[];autosize=1;strokeColor=none;fillColor=none;" parent="1" vertex="1">
          <mxGeometry x="275" y="288" width="70" height="30" as="geometry" />
        </mxCell>
        <mxCell id="e3buDwDWEeGiWqqK8DOD-1" value="" style="sketch=0;verticalLabelPosition=bottom;sketch=0;aspect=fixed;html=1;verticalAlign=top;strokeColor=none;fillColor=#3399FF;align=center;outlineConnect=0;pointerEvents=1;shape=mxgraph.citrix2.authentication_google;" vertex="1" parent="1">
          <mxGeometry x="256" y="880" width="78" height="78" as="geometry" />
        </mxCell>
        <mxCell id="e3buDwDWEeGiWqqK8DOD-21" value="Google OAauth" style="text;html=1;align=center;verticalAlign=middle;resizable=0;points=[];autosize=1;strokeColor=none;fillColor=none;fontSize=14;" vertex="1" parent="1">
          <mxGeometry x="381" y="448" width="120" height="30" as="geometry" />
        </mxCell>
        <mxCell id="e3buDwDWEeGiWqqK8DOD-36" style="edgeStyle=orthogonalEdgeStyle;rounded=0;orthogonalLoop=1;jettySize=auto;html=1;fillColor=#f8cecc;strokeColor=#b85450;" edge="1" parent="1" source="e3buDwDWEeGiWqqK8DOD-27" target="e3buDwDWEeGiWqqK8DOD-28">
          <mxGeometry relative="1" as="geometry" />
        </mxCell>
        <mxCell id="e3buDwDWEeGiWqqK8DOD-37" value="Upload Video" style="edgeLabel;html=1;align=center;verticalAlign=middle;resizable=0;points=[];fontSize=14;" vertex="1" connectable="0" parent="e3buDwDWEeGiWqqK8DOD-36">
          <mxGeometry x="-0.2157" y="1" relative="1" as="geometry">
            <mxPoint x="9" y="-10" as="offset" />
          </mxGeometry>
        </mxCell>
        <mxCell id="e3buDwDWEeGiWqqK8DOD-27" value="" style="sketch=0;outlineConnect=0;fontColor=#232F3E;gradientColor=none;fillColor=#232F3D;strokeColor=none;dashed=0;verticalLabelPosition=bottom;verticalAlign=top;align=center;html=1;fontSize=12;fontStyle=0;aspect=fixed;pointerEvents=1;shape=mxgraph.aws4.authenticated_user;" vertex="1" parent="1">
          <mxGeometry x="-115" y="1004.25" width="78" height="78" as="geometry" />
        </mxCell>
        <mxCell id="e3buDwDWEeGiWqqK8DOD-32" style="edgeStyle=orthogonalEdgeStyle;rounded=0;orthogonalLoop=1;jettySize=auto;html=1;fillColor=#f8cecc;strokeColor=#b85450;" edge="1" parent="1" source="e3buDwDWEeGiWqqK8DOD-28" target="9G7zbOAQeBJa7XBP9B1H-48">
          <mxGeometry relative="1" as="geometry">
            <mxPoint x="225" y="1113" as="sourcePoint" />
            <mxPoint x="398.1300000000001" y="1113" as="targetPoint" />
            <Array as="points">
              <mxPoint x="310" y="1005" />
              <mxPoint x="310" y="1005" />
            </Array>
          </mxGeometry>
        </mxCell>
        <mxCell id="e3buDwDWEeGiWqqK8DOD-34" value="Submit Form" style="edgeLabel;html=1;align=center;verticalAlign=middle;resizable=0;points=[];fontSize=14;" vertex="1" connectable="0" parent="e3buDwDWEeGiWqqK8DOD-32">
          <mxGeometry x="-0.2491" relative="1" as="geometry">
            <mxPoint x="-75" y="-15" as="offset" />
          </mxGeometry>
        </mxCell>
        <mxCell id="e3buDwDWEeGiWqqK8DOD-45" style="edgeStyle=orthogonalEdgeStyle;rounded=0;orthogonalLoop=1;jettySize=auto;html=1;fillColor=#e1d5e7;strokeColor=#9673a6;" edge="1" parent="1" source="e3buDwDWEeGiWqqK8DOD-28" target="e3buDwDWEeGiWqqK8DOD-42">
          <mxGeometry relative="1" as="geometry">
            <mxPoint x="160" y="1190" as="sourcePoint" />
            <mxPoint x="406" y="1293" as="targetPoint" />
            <Array as="points">
              <mxPoint x="160" y="1464" />
            </Array>
          </mxGeometry>
        </mxCell>
        <mxCell id="e3buDwDWEeGiWqqK8DOD-46" value="Upload Video By Presign" style="edgeLabel;html=1;align=center;verticalAlign=middle;resizable=0;points=[];fontSize=14;horizontal=1;" vertex="1" connectable="0" parent="e3buDwDWEeGiWqqK8DOD-45">
          <mxGeometry x="-0.6475" y="-1" relative="1" as="geometry">
            <mxPoint x="97" y="230" as="offset" />
          </mxGeometry>
        </mxCell>
        <mxCell id="e3buDwDWEeGiWqqK8DOD-28" value="" style="sketch=0;pointerEvents=1;shadow=0;dashed=0;html=1;strokeColor=none;fillColor=#434445;aspect=fixed;labelPosition=center;verticalLabelPosition=bottom;verticalAlign=top;align=center;outlineConnect=0;shape=mxgraph.vvd.web_browser;" vertex="1" parent="1">
          <mxGeometry x="85" y="990" width="150" height="106.5" as="geometry" />
        </mxCell>
        <mxCell id="e3buDwDWEeGiWqqK8DOD-29" value="User" style="text;html=1;align=center;verticalAlign=middle;resizable=0;points=[];autosize=1;strokeColor=none;fillColor=none;fontSize=14;" vertex="1" parent="1">
          <mxGeometry x="-103" y="1081.25" width="50" height="30" as="geometry" />
        </mxCell>
        <mxCell id="e3buDwDWEeGiWqqK8DOD-76" style="edgeStyle=orthogonalEdgeStyle;rounded=0;orthogonalLoop=1;jettySize=auto;html=1;fillColor=#dae8fc;strokeColor=#6c8ebf;" edge="1" parent="1" source="e3buDwDWEeGiWqqK8DOD-78" target="e3buDwDWEeGiWqqK8DOD-79">
          <mxGeometry relative="1" as="geometry" />
        </mxCell>
        <mxCell id="e3buDwDWEeGiWqqK8DOD-77" value="Open Website" style="edgeLabel;html=1;align=center;verticalAlign=middle;resizable=0;points=[];fontSize=14;" vertex="1" connectable="0" parent="e3buDwDWEeGiWqqK8DOD-76">
          <mxGeometry x="-0.2157" y="1" relative="1" as="geometry">
            <mxPoint x="9" y="-10" as="offset" />
          </mxGeometry>
        </mxCell>
        <mxCell id="e3buDwDWEeGiWqqK8DOD-78" value="" style="sketch=0;outlineConnect=0;fontColor=#232F3E;gradientColor=none;fillColor=#232F3D;strokeColor=none;dashed=0;verticalLabelPosition=bottom;verticalAlign=top;align=center;html=1;fontSize=12;fontStyle=0;aspect=fixed;pointerEvents=1;shape=mxgraph.aws4.authenticated_user;" vertex="1" parent="1">
          <mxGeometry x="-115" y="604" width="78" height="78" as="geometry" />
        </mxCell>
        <mxCell id="e3buDwDWEeGiWqqK8DOD-79" value="" style="sketch=0;pointerEvents=1;shadow=0;dashed=0;html=1;strokeColor=none;fillColor=#434445;aspect=fixed;labelPosition=center;verticalLabelPosition=bottom;verticalAlign=top;align=center;outlineConnect=0;shape=mxgraph.vvd.web_browser;" vertex="1" parent="1">
          <mxGeometry x="80" y="590" width="150" height="106.5" as="geometry" />
        </mxCell>
        <mxCell id="e3buDwDWEeGiWqqK8DOD-80" value="User" style="text;html=1;align=center;verticalAlign=middle;resizable=0;points=[];autosize=1;strokeColor=none;fillColor=none;fontSize=14;" vertex="1" parent="1">
          <mxGeometry x="-103" y="690" width="50" height="30" as="geometry" />
        </mxCell>
        <mxCell id="e3buDwDWEeGiWqqK8DOD-90" style="edgeStyle=orthogonalEdgeStyle;rounded=0;orthogonalLoop=1;jettySize=auto;html=1;fillColor=#f8cecc;strokeColor=#b85450;" edge="1" parent="1" source="9G7zbOAQeBJa7XBP9B1H-48" target="e3buDwDWEeGiWqqK8DOD-28">
          <mxGeometry relative="1" as="geometry">
            <mxPoint x="635" y="1129" as="sourcePoint" />
            <mxPoint x="225.00000000000045" y="1129" as="targetPoint" />
            <Array as="points">
              <mxPoint x="320" y="1020" />
              <mxPoint x="320" y="1020" />
            </Array>
          </mxGeometry>
        </mxCell>
        <mxCell id="e3buDwDWEeGiWqqK8DOD-91" value="&lt;font style=&quot;font-size: 14px;&quot;&gt;Retrun Presign&lt;/font&gt;" style="edgeLabel;html=1;align=center;verticalAlign=middle;resizable=0;points=[];" vertex="1" connectable="0" parent="e3buDwDWEeGiWqqK8DOD-90">
          <mxGeometry x="0.7138" relative="1" as="geometry">
            <mxPoint x="17" y="23" as="offset" />
          </mxGeometry>
        </mxCell>
        <mxCell id="9G7zbOAQeBJa7XBP9B1H-39" value="" style="sketch=0;pointerEvents=1;shadow=0;dashed=0;html=1;strokeColor=none;fillColor=#434445;aspect=fixed;labelPosition=center;verticalLabelPosition=bottom;verticalAlign=top;align=center;outlineConnect=0;shape=mxgraph.vvd.web_browser;" parent="1" vertex="1">
          <mxGeometry x="83.5" y="780" width="150" height="106.5" as="geometry" />
        </mxCell>
        <mxCell id="e3buDwDWEeGiWqqK8DOD-38" style="edgeStyle=orthogonalEdgeStyle;rounded=0;orthogonalLoop=1;jettySize=auto;html=1;fillColor=#d5e8d4;strokeColor=#82b366;" edge="1" parent="1" source="9G7zbOAQeBJa7XBP9B1H-14" target="9G7zbOAQeBJa7XBP9B1H-39">
          <mxGeometry relative="1" as="geometry" />
        </mxCell>
        <mxCell id="e3buDwDWEeGiWqqK8DOD-39" value="Login Website" style="edgeLabel;html=1;align=center;verticalAlign=middle;resizable=0;points=[];fontSize=14;" vertex="1" connectable="0" parent="e3buDwDWEeGiWqqK8DOD-38">
          <mxGeometry x="-0.1134" y="-1" relative="1" as="geometry">
            <mxPoint y="-15" as="offset" />
          </mxGeometry>
        </mxCell>
        <mxCell id="e3buDwDWEeGiWqqK8DOD-6" style="edgeStyle=orthogonalEdgeStyle;rounded=0;orthogonalLoop=1;jettySize=auto;html=1;fillColor=#d5e8d4;strokeColor=#82b366;" edge="1" parent="1" source="9G7zbOAQeBJa7XBP9B1H-39" target="9G7zbOAQeBJa7XBP9B1H-31">
          <mxGeometry relative="1" as="geometry">
            <mxPoint x="223.5" y="818.87" as="sourcePoint" />
            <mxPoint x="395" y="818.87" as="targetPoint" />
            <Array as="points">
              <mxPoint x="323.5" y="820.87" />
              <mxPoint x="323.5" y="820.87" />
            </Array>
          </mxGeometry>
        </mxCell>
        <mxCell id="e3buDwDWEeGiWqqK8DOD-13" value="Login" style="edgeLabel;html=1;align=center;verticalAlign=middle;resizable=0;points=[];fontSize=14;" vertex="1" connectable="0" parent="e3buDwDWEeGiWqqK8DOD-6">
          <mxGeometry x="-0.0601" y="-2" relative="1" as="geometry">
            <mxPoint x="-13" y="-13" as="offset" />
          </mxGeometry>
        </mxCell>
        <mxCell id="e3buDwDWEeGiWqqK8DOD-7" style="edgeStyle=orthogonalEdgeStyle;rounded=0;orthogonalLoop=1;jettySize=auto;html=1;fillColor=#d5e8d4;strokeColor=#82b366;" edge="1" parent="1" source="9G7zbOAQeBJa7XBP9B1H-31" target="9G7zbOAQeBJa7XBP9B1H-39">
          <mxGeometry relative="1" as="geometry">
            <mxPoint x="393.5" y="854.87" as="sourcePoint" />
            <mxPoint x="202" y="854.87" as="targetPoint" />
            <Array as="points">
              <mxPoint x="323.5" y="840.87" />
              <mxPoint x="323.5" y="840.87" />
            </Array>
          </mxGeometry>
        </mxCell>
        <mxCell id="e3buDwDWEeGiWqqK8DOD-15" value="Callback" style="edgeLabel;html=1;align=center;verticalAlign=middle;resizable=0;points=[];fontSize=14;" vertex="1" connectable="0" parent="e3buDwDWEeGiWqqK8DOD-7">
          <mxGeometry x="0.0548" relative="1" as="geometry">
            <mxPoint x="-6" y="9" as="offset" />
          </mxGeometry>
        </mxCell>
        <mxCell id="e3buDwDWEeGiWqqK8DOD-102" style="edgeStyle=orthogonalEdgeStyle;rounded=0;orthogonalLoop=1;jettySize=auto;html=1;fillColor=#dae8fc;strokeColor=#6c8ebf;" edge="1" parent="1" source="9G7zbOAQeBJa7XBP9B1H-48" target="e3buDwDWEeGiWqqK8DOD-79">
          <mxGeometry relative="1" as="geometry">
            <Array as="points">
              <mxPoint x="660" y="640" />
            </Array>
          </mxGeometry>
        </mxCell>
        <mxCell id="e3buDwDWEeGiWqqK8DOD-103" value="Response Frontend" style="edgeLabel;html=1;align=center;verticalAlign=middle;resizable=0;points=[];fontSize=14;" vertex="1" connectable="0" parent="e3buDwDWEeGiWqqK8DOD-102">
          <mxGeometry x="0.8661" y="-2" relative="1" as="geometry">
            <mxPoint x="12" y="18" as="offset" />
          </mxGeometry>
        </mxCell>
        <mxCell id="e3buDwDWEeGiWqqK8DOD-107" style="edgeStyle=orthogonalEdgeStyle;rounded=0;orthogonalLoop=1;jettySize=auto;html=1;fillColor=#d5e8d4;strokeColor=#82b366;" edge="1" parent="1" source="9G7zbOAQeBJa7XBP9B1H-31" target="e3buDwDWEeGiWqqK8DOD-1">
          <mxGeometry relative="1" as="geometry">
            <Array as="points">
              <mxPoint x="450" y="910" />
            </Array>
          </mxGeometry>
        </mxCell>
        <mxCell id="e3buDwDWEeGiWqqK8DOD-109" value="Login" style="edgeLabel;html=1;align=center;verticalAlign=middle;resizable=0;points=[];fontSize=14;" vertex="1" connectable="0" parent="e3buDwDWEeGiWqqK8DOD-107">
          <mxGeometry x="0.1687" y="2" relative="1" as="geometry">
            <mxPoint x="1" y="-15" as="offset" />
          </mxGeometry>
        </mxCell>
        <mxCell id="e3buDwDWEeGiWqqK8DOD-110" style="edgeStyle=orthogonalEdgeStyle;rounded=0;orthogonalLoop=1;jettySize=auto;html=1;entryX=0.5;entryY=1;entryDx=0;entryDy=0;entryPerimeter=0;fillColor=#d5e8d4;strokeColor=#82b366;" edge="1" parent="1" source="e3buDwDWEeGiWqqK8DOD-1">
          <mxGeometry relative="1" as="geometry">
            <mxPoint x="342.99999999999955" y="930" as="sourcePoint" />
            <mxPoint x="464.75000000000045" y="874.8700000000003" as="targetPoint" />
            <Array as="points">
              <mxPoint x="465" y="930" />
            </Array>
          </mxGeometry>
        </mxCell>
        <mxCell id="e3buDwDWEeGiWqqK8DOD-111" value="Callback" style="edgeLabel;html=1;align=center;verticalAlign=middle;resizable=0;points=[];fontSize=14;rotation=0;" vertex="1" connectable="0" parent="e3buDwDWEeGiWqqK8DOD-110">
          <mxGeometry x="-0.4008" relative="1" as="geometry">
            <mxPoint x="12" y="10" as="offset" />
          </mxGeometry>
        </mxCell>
        <mxCell id="e3buDwDWEeGiWqqK8DOD-22" value="User" style="text;html=1;align=center;verticalAlign=middle;resizable=0;points=[];autosize=1;strokeColor=none;fillColor=none;fontSize=14;" vertex="1" parent="1">
          <mxGeometry x="-112.5" y="880" width="50" height="30" as="geometry" />
        </mxCell>
        <mxCell id="e3buDwDWEeGiWqqK8DOD-100" style="edgeStyle=orthogonalEdgeStyle;rounded=0;orthogonalLoop=1;jettySize=auto;html=1;fillColor=#dae8fc;strokeColor=#6c8ebf;" edge="1" parent="1" source="e3buDwDWEeGiWqqK8DOD-79" target="9G7zbOAQeBJa7XBP9B1H-48">
          <mxGeometry relative="1" as="geometry">
            <mxPoint x="230.00000000000045" y="588.2222222222222" as="sourcePoint" />
            <mxPoint x="676.5555555555552" y="933" as="targetPoint" />
            <Array as="points">
              <mxPoint x="690" y="620" />
            </Array>
          </mxGeometry>
        </mxCell>
        <mxCell id="e3buDwDWEeGiWqqK8DOD-101" value="&lt;font style=&quot;font-size: 14px;&quot;&gt;Request Resource&lt;/font&gt;" style="edgeLabel;html=1;align=center;verticalAlign=middle;resizable=0;points=[];" vertex="1" connectable="0" parent="e3buDwDWEeGiWqqK8DOD-100">
          <mxGeometry x="-0.8419" y="3" relative="1" as="geometry">
            <mxPoint x="3" y="-10" as="offset" />
          </mxGeometry>
        </mxCell>
      </root>
    </mxGraphModel>
  </diagram>
</mxfile>
